<svg width="32" height="32" viewBox="0 0 32 32" fill="none" xmlns="http://www.w3.org/2000/svg">
<rect width="32" height="32" rx="14" fill="#272727"/>
<path d="M15.3808 8.44566C15.5351 7.98665 16.1845 7.98662 16.3388 8.44566L17.2812 11.2503C17.9277 13.1735 19.4938 14.6459 21.4531 15.1732L23.1415 15.6273C23.64 15.7615 23.6401 16.4697 23.1415 16.6039L21.4531 17.058C19.4937 17.5852 17.9277 19.0575 17.2812 20.9808L16.3388 23.7855C16.1845 24.2444 15.5352 24.2443 15.3808 23.7855L14.4384 20.9808C13.7919 19.0575 12.2259 17.5853 10.2665 17.058L8.57806 16.6039C8.07945 16.4697 8.07945 15.7615 8.57806 15.6273L10.2665 15.1732C12.2258 14.6459 13.7919 13.1736 14.4384 11.2503L15.3808 8.44566ZM22.621 6.9398C22.7217 6.64036 23.1454 6.64034 23.246 6.9398L23.3398 7.2191C23.5973 7.98538 24.2213 8.57249 25.0019 8.78257C25.2665 8.85399 25.2665 9.22976 25.0019 9.30113C24.2214 9.51118 23.5974 10.0975 23.3398 10.8636L23.246 11.1439C23.1454 11.4433 22.7218 11.4431 22.621 11.1439L22.5263 10.8636C22.2687 10.0975 21.6447 9.51117 20.8642 9.30113C20.5999 9.22962 20.5999 8.85413 20.8642 8.78257C21.6448 8.57249 22.2687 7.98538 22.5263 7.2191L22.621 6.9398Z" fill="url(#paint0_linear_9_45)"/>
<defs>
<linearGradient id="paint0_linear_9_45" x1="18.8597" y1="12.5156" x2="14.6597" y2="23.9156" gradientUnits="userSpaceOnUse">
<stop stop-color="white"/>
<stop offset="1" stop-color="#999999"/>
</linearGradient>
</defs>
</svg>
